<svg width="8" height="8" viewBox="0 0 8 8" fill="none" xmlns="http://www.w3.org/2000/svg">
<path fill-rule="evenodd" clip-rule="evenodd" d="M7.2 6.4V7.2C7.2 7.6424 6.8424 8 6.4 8H0.8C0.34 8 0 7.6128 0 7.2V1.6C0 1.1584 0.3584 0.8 0.8 0.8H1.6C2.42955 0.8 2.43243 2 1.6 2C1.45774 2.00402 1.31763 2 1.2 2V6.8H6C6 6.8 6 6.54223 6 6.4C6 5.6 7.2 5.6 7.2 6.4ZM4.2 0.6C4.2 0.268629 4.46863 0 4.8 0H8V3.2C8 3.53137 7.73137 3.8 7.4 3.8C7.06863 3.8 6.8 3.53137 6.8 3.2V2.04853L4.22426 4.62426C3.98995 4.85858 3.61005 4.85858 3.37574 4.62426C3.14142 4.38995 3.14142 4.01005 3.37574 3.77574L5.95147 1.2H4.8C4.46863 1.2 4.2 0.931371 4.2 0.6Z" fill="#353843"/>
</svg>