<svg width="489" height="96" viewBox="0 0 489 96" fill="none" xmlns="http://www.w3.org/2000/svg">
<g clip-path="url(#clip0)">
<path d="M91.4695 30.2605H67.6309C67.1003 30.2611 66.5831 30.0927 66.1536 29.7796C65.7241 29.4664 65.4045 29.0246 65.2406 28.5176L57.8574 5.73906C57.2945 4.06791 56.2243 2.61606 54.7973 1.58773C53.3703 0.5594 51.6582 0.00634766 49.902 0.00634766C48.1457 0.00634766 46.4337 0.5594 45.0067 1.58773C43.5796 2.61606 42.5094 4.06791 41.9466 5.73906L34.5633 28.5176C34.4027 29.0194 34.0889 29.4577 33.6666 29.7705C33.2442 30.0833 32.7346 30.2547 32.2099 30.2605H8.37135C6.60677 30.2603 4.88733 30.8208 3.45917 31.8619C2.031 32.903 0.967329 34.3713 0.420392 36.0565C-0.126544 37.7418 -0.1287 39.5577 0.414235 41.2443C0.95717 42.9309 2.01736 44.4017 3.44305 45.4463L20.5075 57.9063C21.5887 58.6834 22.3959 59.7858 22.8123 61.054C23.2287 62.3223 23.2328 63.6907 22.824 64.9615L16.3637 84.9031C15.789 86.609 15.7642 88.4535 16.2927 90.1744C16.8212 91.8953 17.8762 93.4051 19.3077 94.4892C21.6427 96.2043 24.5221 96.4454 27.8723 95.2123C29.2161 94.708 30.5055 94.0681 31.7208 93.3026C34.8834 91.2581 37.9306 89.039 40.8483 86.6553C41.147 86.4118 41.3951 86.1116 41.5784 85.7718C41.7616 85.432 41.8765 85.0593 41.9163 84.6749C41.9562 84.2905 41.9203 83.902 41.8106 83.5315C41.701 83.1611 41.5198 82.816 41.2775 82.5159C41.0351 82.2158 40.7362 81.9666 40.3979 81.7825C40.0597 81.5984 39.6886 81.483 39.3059 81.443C38.9233 81.403 38.5365 81.4391 38.1678 81.5492C37.799 81.6593 37.4554 81.8413 37.1567 82.0848C34.43 84.314 31.5831 86.3907 28.6291 88.3055C27.7567 88.877 26.8291 89.3585 25.8604 89.7425C23.7469 90.5306 23.0916 90.0392 22.7594 89.8074C22.3186 89.4518 22.0003 88.9659 21.8496 88.4185C21.6989 87.8711 21.7233 87.29 21.9196 86.7573L28.3799 66.8249C29.1755 64.3767 29.177 61.738 28.3842 59.2889C27.5914 56.8398 26.0453 54.7066 23.9684 53.1967L6.89471 40.6996C6.46401 40.3858 6.14324 39.9431 5.97837 39.4349C5.81351 38.9268 5.81301 38.3793 5.97695 37.8708C6.14088 37.3624 6.46084 36.9191 6.89097 36.6045C7.32109 36.29 7.83931 36.1203 8.37135 36.1197H32.2099C33.9783 36.1291 35.7034 35.5712 37.1343 34.5274C38.5651 33.4835 39.627 32.0082 40.1653 30.3162L47.5486 7.54688C47.7308 7.05656 48.0579 6.63389 48.4859 6.33548C48.9139 6.03706 49.4225 5.87715 49.9435 5.87715C50.4645 5.87715 50.9731 6.03706 51.4011 6.33548C51.8291 6.63389 52.1562 7.05656 52.3384 7.54688L59.7217 30.3162C60.2595 32.0067 61.32 33.4809 62.749 34.5246C64.178 35.5683 65.9011 36.1271 67.6679 36.1197H91.5064C92.0385 36.1203 92.5567 36.29 92.9868 36.6045C93.4169 36.9191 93.7369 37.3624 93.9008 37.8708C94.0648 38.3793 94.0643 38.9268 93.8994 39.4349C93.7345 39.9431 93.4138 40.3858 92.9831 40.6996L75.9186 53.1504C73.8429 54.6612 72.2976 56.7944 71.5049 59.2432C70.7122 61.692 70.713 64.3303 71.5071 66.7786L77.9675 86.6831C78.1876 87.2069 78.2291 87.7892 78.0856 88.3392C77.942 88.8892 77.6214 89.3761 77.1738 89.724C76.5277 90.2339 75.8263 90.3544 73.8421 89.6035L73.2145 89.3439C64.7834 85.8209 57.1394 80.6387 50.7326 74.1026L50.6403 74.0006C47.5066 70.8778 44.7214 67.421 42.3342 63.6913C40.8439 61.3584 39.6063 58.872 38.6426 56.2746C36.9352 51.4909 36.9906 48.3295 38.8364 46.3455C39.3786 45.8591 40.0265 45.5069 40.7284 45.317C41.4303 45.127 42.1666 45.1046 42.8787 45.2516C44.9091 45.8078 46.3119 47.4395 47.1702 50.2578C47.3553 50.852 47.7228 51.372 48.2202 51.7433C48.7176 52.1147 49.3192 52.3184 49.9389 52.3252C50.5571 52.3341 51.1614 52.1408 51.6608 51.7746C52.1602 51.4084 52.5276 50.8891 52.7076 50.2949C53.3352 48.3573 54.8672 45.1125 58.162 45.1125C58.7648 45.109 59.3605 45.2433 59.9041 45.5051C60.4477 45.7669 60.925 46.1494 61.2998 46.6236C62.9241 48.6354 62.878 51.8339 61.1798 56.4044C59.9119 59.7327 58.0336 62.7925 55.6424 65.425C55.1574 65.9984 54.9097 66.7368 54.9505 67.4881C54.9912 68.2394 55.3173 68.9465 55.8616 69.4635C56.4058 69.9805 57.1267 70.2681 57.8758 70.267C58.6249 70.266 59.345 69.9764 59.8878 69.4578C62.8226 66.2581 65.1246 62.5267 66.6711 58.4626C69.163 51.7783 68.8953 46.6978 65.8682 42.9339C64.9465 41.7799 63.7792 40.8478 62.4521 40.2061C61.125 39.5644 59.6717 39.2294 58.1989 39.2255C56.6208 39.2261 55.063 39.582 53.64 40.2671C52.2169 40.9522 50.9648 41.9489 49.9758 43.1842C48.5263 41.4252 46.5689 40.1618 44.3738 39.5685C42.6329 39.1415 40.8117 39.1731 39.0866 39.6604C37.3614 40.1476 35.7907 41.074 34.5264 42.3498C29.4043 47.9123 32.2007 55.6906 33.1144 58.2586C34.2126 61.2689 35.6329 64.1505 37.3505 66.8527C39.944 70.9299 42.9772 74.7075 46.3949 78.1168C53.2925 85.238 61.556 90.8803 70.6857 94.7025H70.7596C72.3945 95.4792 74.1672 95.9205 75.974 96.0004C77.7207 96.0177 79.4184 95.4208 80.7731 94.3131C82.1466 93.2171 83.1454 91.7178 83.6302 90.0243C84.1149 88.3308 84.0614 86.5275 83.4772 84.866L77.0169 64.9615C76.6042 63.6945 76.6027 62.3287 77.0123 61.0608C77.422 59.7929 78.2218 58.6884 79.2964 57.9063L96.3609 45.4463C97.7841 44.4036 98.8431 42.9361 99.387 41.2531C99.9308 39.5701 99.9316 37.7576 99.3894 36.0741C98.8471 34.3906 97.7894 32.9221 96.3672 31.8782C94.945 30.8342 93.231 30.2681 91.4695 30.2605Z" fill="#6B20CE"/>
<path d="M150.184 36.3326C150.996 36.3451 151.781 36.0361 152.368 35.4723C152.955 34.9085 153.298 34.1352 153.322 33.3196C153.312 32.4874 152.978 31.6923 152.392 31.1047C151.805 30.5171 151.012 30.184 150.184 30.1768H125.496C123.051 30.1768 121.731 31.5025 121.731 33.8851V73.7035C121.75 74.6381 122.133 75.528 122.797 76.1829C123.461 76.8378 124.354 77.2057 125.284 77.208C126.197 77.1909 127.067 76.8139 127.706 76.1583C128.345 75.5027 128.701 74.621 128.699 73.7035V56.1445H149.667C150.497 56.1373 151.291 55.8028 151.878 55.2132C152.465 54.6237 152.798 53.8261 152.805 52.9924C152.781 52.1768 152.438 51.4035 151.851 50.8397C151.264 50.2759 150.479 49.9668 149.667 49.9794H128.699V36.3326H150.184Z" fill="#6B20CE"/>
<path d="M168.208 29.8245C167.279 29.8243 166.386 30.1901 165.722 30.8435C165.057 31.4969 164.674 32.3859 164.655 33.3196V73.7035C164.672 74.6389 165.054 75.5302 165.718 76.1856C166.383 76.841 167.277 77.2081 168.208 77.208C169.121 77.1909 169.991 76.8139 170.63 76.1583C171.269 75.5027 171.626 74.621 171.623 73.7035V33.3196C171.623 32.4037 171.265 31.5245 170.627 30.8708C169.988 30.2172 169.12 29.8415 168.208 29.8245Z" fill="#6B20CE"/>
<path d="M221.718 29.8244C220.975 29.8233 220.249 30.0511 219.638 30.4771C219.028 30.9031 218.562 31.5069 218.303 32.207L204.155 69.1979L190.081 32.207C189.788 31.3751 189.21 30.6753 188.449 30.2334C187.689 29.7915 186.796 29.6365 185.932 29.7962C185.069 29.956 184.29 30.42 183.736 31.1048C183.182 31.7897 182.889 32.6506 182.91 33.5328C182.919 33.9984 183.036 34.4554 183.252 34.8678L198.443 73.2863C198.899 74.4443 199.691 75.4378 200.716 76.1379C201.741 76.838 202.953 77.2124 204.192 77.2124C205.432 77.2124 206.643 76.838 207.668 76.1379C208.694 75.4378 209.486 74.4443 209.942 73.2863L225.133 34.8956C225.328 34.4784 225.423 34.0212 225.41 33.5606C225.413 33.0713 225.321 32.5861 225.137 32.1329C224.953 31.6798 224.682 31.2677 224.338 30.9204C223.995 30.5731 223.587 30.2975 223.137 30.1094C222.688 29.9213 222.205 29.8244 221.718 29.8244Z" fill="#6B20CE"/>
<path d="M263.803 36.3326C264.613 36.3427 265.395 36.0326 265.98 35.469C266.566 34.9055 266.907 34.1336 266.931 33.3196C266.922 32.489 266.589 31.6952 266.004 31.1079C265.42 30.5206 264.629 30.1864 263.803 30.1768H239.133C236.697 30.1768 235.377 31.5025 235.377 33.8851V73.1473C235.377 75.5299 236.697 76.8557 239.133 76.8557H263.803C264.631 76.846 265.422 76.5105 266.007 75.9212C266.592 75.3319 266.924 74.5357 266.931 73.7035C266.907 72.8904 266.565 72.1195 265.98 71.5574C265.394 70.9953 264.612 70.6872 263.803 70.6998H242.336V56.1445H263.313C264.143 56.1349 264.935 55.7997 265.522 55.2106C266.108 54.6216 266.442 53.8254 266.451 52.9924C266.425 52.1776 266.081 51.4057 265.495 50.8424C264.908 50.2791 264.125 49.9692 263.313 49.9794H242.336V36.3326H263.803Z" fill="#6B20CE"/>
<path d="M296.058 49.284C290.281 47.8099 285.26 46.5028 285.26 42.2845C285.26 38.3629 288.813 35.7022 294.489 35.7022C298.513 35.6548 302.437 36.9601 305.638 39.4105C306.207 39.8167 306.887 40.0369 307.585 40.0409C308.461 40.0287 309.297 39.6692 309.911 39.0406C310.525 38.412 310.866 37.5653 310.861 36.6849C310.868 36.1526 310.737 35.6276 310.482 35.1612C310.226 34.6949 309.854 34.3031 309.403 34.0241C305.248 30.983 300.22 29.385 295.08 29.4721C284.835 29.4721 278.071 35.0347 278.071 42.7759C278.071 52.2878 286.718 54.4572 294.166 56.4226C300.091 57.9616 305.389 59.3615 305.389 64.2565C305.389 67.6218 302.74 71.4692 295.237 71.4692C290.732 71.4538 286.372 69.8715 282.897 66.9914C282.293 66.5424 281.563 66.2959 280.812 66.2868C280.112 66.2842 279.43 66.5027 278.861 66.9113C278.292 67.3199 277.866 67.898 277.642 68.5635C277.419 69.2291 277.409 69.9485 277.615 70.6197C277.821 71.291 278.233 71.8801 278.79 72.3036C282.759 75.5948 288.13 77.6993 294.95 77.6993C307.493 77.6993 312.486 70.913 312.486 63.6261C312.504 53.6877 303.653 51.3143 296.058 49.284Z" fill="#6B20CE"/>
<path d="M352.78 30.1768H322.471C321.651 30.189 320.869 30.526 320.295 31.1147C319.722 31.7033 319.402 32.4957 319.407 33.3196C319.411 33.7197 319.493 34.1152 319.649 34.4833C319.805 34.8515 320.032 35.1851 320.317 35.465C320.601 35.7449 320.938 35.9656 321.308 36.1145C321.678 36.2634 322.073 36.3375 322.471 36.3326H334.174V73.7035C334.176 74.6322 334.545 75.5222 335.198 76.1788C335.852 76.8355 336.738 77.2055 337.662 77.208C338.582 77.1912 339.458 76.8164 340.108 76.1625C340.757 75.5086 341.128 74.6269 341.142 73.7035V36.3326H352.78C353.59 36.3427 354.372 36.0326 354.957 35.469C355.543 34.9055 355.884 34.1336 355.908 33.3196C355.899 32.489 355.566 31.6952 354.981 31.1079C354.397 30.5206 353.606 30.1864 352.78 30.1768Z" fill="#6B20CE"/>
<path d="M472.554 49.284C466.767 47.81 461.756 46.5028 461.756 42.2845C461.756 38.3629 465.309 35.7022 470.985 35.7022C475.009 35.6548 478.933 36.9601 482.134 39.4106C482.702 39.8179 483.383 40.0381 484.081 40.041C484.956 40.0263 485.791 39.666 486.404 39.038C487.017 38.4099 487.36 37.5646 487.357 36.6849C487.362 36.1519 487.229 35.6267 486.972 35.1604C486.715 34.6941 486.342 34.3027 485.89 34.0242C481.729 30.9748 476.689 29.3762 471.539 29.4722C461.294 29.4722 454.539 35.0347 454.539 42.7759C454.539 52.2878 463.177 54.4572 470.634 56.4226C476.559 57.9616 481.847 59.3615 481.847 64.2565C481.847 67.6219 479.199 71.4693 471.696 71.4693C467.191 71.4561 462.83 69.8735 459.356 66.9914C458.748 66.544 458.016 66.2978 457.261 66.2868C456.562 66.2842 455.88 66.5027 455.311 66.9113C454.742 67.32 454.316 67.898 454.092 68.5636C453.869 69.2291 453.859 69.9485 454.065 70.6197C454.271 71.291 454.682 71.8801 455.24 72.3037C459.218 75.5948 464.58 77.6993 471.409 77.6993C483.952 77.6993 488.945 70.913 488.945 63.6261C488.991 53.6877 480.149 51.3144 472.554 49.284Z" fill="#6B20CE"/>
<path d="M384.546 33.7461C384.092 32.594 383.306 31.6048 382.288 30.9059C381.27 30.2069 380.066 29.8303 378.833 29.8245C377.608 29.8306 376.413 30.2083 375.405 30.908C374.398 31.6078 373.624 32.597 373.185 33.7461L357.837 72.3037C357.679 72.7323 357.586 73.1823 357.56 73.6387C357.562 74.4641 357.85 75.2632 358.374 75.8992C358.897 76.5353 359.625 76.9687 360.432 77.1253C361.239 77.2819 362.074 77.152 362.796 76.7578C363.518 76.3637 364.082 75.7297 364.39 74.9644L367.315 67.1954L369.613 60.9654L370.195 59.4264H387.499L388.081 60.9654L390.379 67.1954L393.304 74.9644C393.555 75.6313 394.003 76.2045 394.59 76.6059C395.176 77.0074 395.871 77.2176 396.581 77.208C397.521 77.2031 398.422 76.8255 399.088 76.1572C399.753 75.4888 400.129 74.5838 400.134 73.6387C400.123 73.1805 400.029 72.7281 399.857 72.3037L384.546 33.7461ZM372.548 53.2149L378.87 36.2306L385.238 53.2149H372.548Z" fill="#6B20CE"/>
<path d="M444.304 44.9545C444.304 36.8147 437.308 30.1953 428.707 30.1953H416.635H413.811C411.365 30.1953 410.046 31.521 410.046 33.9036V73.7221C410.065 74.6566 410.448 75.5466 411.112 76.2014C411.776 76.8563 412.668 77.2242 413.599 77.2265C414.512 77.2094 415.382 76.8324 416.021 76.1768C416.66 75.5211 417.016 74.6395 417.014 73.7221V59.723H426.879L436.155 75.5299C436.458 76.0125 436.872 76.4155 437.361 76.7057C437.851 76.9959 438.402 77.1648 438.969 77.1986C439.82 77.2393 440.653 76.9534 441.301 76.399C441.949 75.8445 442.363 75.0631 442.458 74.2134C442.519 73.8263 442.502 73.4308 442.409 73.0503C442.315 72.6698 442.147 72.3119 441.913 71.9977L433.986 58.833C436.936 57.8972 439.52 56.0541 441.371 53.5638C443.222 51.0736 444.248 48.0621 444.304 44.9545ZM428.707 52.946H417.014V36.963H428.707C433.589 36.963 437.557 40.5508 437.557 44.9545C437.557 49.3582 433.589 52.946 428.707 52.946Z" fill="#6B20CE"/>
</g>
<defs>
<clipPath id="clip0">
<rect width="489" height="96" fill="white"/>
</clipPath>
</defs>
</svg>
