<svg width="24" height="24" viewBox="0 0 24 24" fill="none" xmlns="http://www.w3.org/2000/svg">
<path d="M21.9 12C21.9 17.4589 17.4589 21.9 12 21.9C6.54108 21.9 2.1 17.4589 2.1 12C2.1 6.54108 6.54108 2.1 12 2.1C17.4589 2.1 21.9 6.54108 21.9 12ZM20.539 12C20.539 7.2915 16.7085 3.46098 12 3.46098C7.2915 3.46098 3.46098 7.2915 3.46098 12C3.46098 16.7085 7.2915 20.539 12 20.539C16.7085 20.539 20.539 16.7085 20.539 12Z" fill="#353843" stroke="white" stroke-width="0.2"/>
<path fill-rule="evenodd" clip-rule="evenodd" d="M12.0019 7C12.4164 7 12.759 7.30801 12.8132 7.70762L12.8206 7.81872V8.23571C13.2058 8.3473 13.5693 8.52421 13.9388 8.76813C14.0978 8.86794 14.2038 9.05648 14.2038 9.2672C14.2038 9.59992 13.9388 9.87718 13.6208 9.87718C13.4937 9.87718 13.3771 9.83282 13.2923 9.76627C12.7836 9.41138 12.1901 9.24502 11.6496 9.24502C10.8123 9.24502 10.346 9.61101 10.346 10.1655C10.346 10.7399 11.0608 10.9292 11.8936 11.1499L11.9039 11.1526C13.0697 11.4631 14.4581 11.8402 14.4581 13.4483C14.4581 14.4108 13.9528 15.2648 12.8206 15.5916V16.0059C12.8206 16.458 12.4541 16.8246 12.0019 16.8246C11.5874 16.8246 11.2449 16.5166 11.1907 16.117L11.1832 16.0059V15.7039C10.3889 15.6159 9.74669 15.3332 9.23316 14.9234C9.09538 14.8125 9 14.635 9 14.4354C9 14.0916 9.26496 13.8143 9.58291 13.8143C9.72068 13.8143 9.84786 13.8587 9.94325 13.9363C10.4308 14.3134 11.0349 14.5796 11.7767 14.5796C12.7942 14.5796 13.1969 14.0583 13.1969 13.5703C13.1969 12.9093 12.4545 12.708 11.6032 12.477L11.586 12.4724C10.4308 12.1729 9.07419 11.818 9.07419 10.2543C9.07419 9.18201 9.86835 8.32395 11.1832 8.13189V7.81872C11.1832 7.36655 11.5498 7 12.0019 7Z" fill="#353843"/>
</svg>
