<svg width="135" height="32" viewBox="0 0 135 32" fill="none" xmlns="http://www.w3.org/2000/svg">
<mask id="mask0" mask-type="alpha" maskUnits="userSpaceOnUse" x="0" y="0" width="32" height="32">
<path fill-rule="evenodd" clip-rule="evenodd" d="M0 0H31.9344V31.5448H0V0Z" fill="white"/>
</mask>
<g mask="url(#mask0)">
<path fill-rule="evenodd" clip-rule="evenodd" d="M29.2548 9.93972H21.6318C21.282 9.93972 20.9741 9.70912 20.8661 9.36582L18.5106 1.88376C18.1502 0.739311 17.1514 0 15.966 0C14.7821 0 13.7841 0.739311 13.424 1.88376L11.0683 9.36582C10.9602 9.70912 10.6527 9.93972 10.3026 9.93972H2.67959C1.4995 9.93972 0.501244 10.6885 0.136416 11.8469C-0.228412 13.0051 0.152945 14.2163 1.10781 14.9324L6.56666 19.0253C7.27329 19.555 7.56669 20.4875 7.2969 21.345L5.23397 27.897C4.86678 29.0777 5.24548 30.344 6.17644 31.048C6.92145 31.6109 7.84326 31.6901 8.9162 31.2832C9.41444 31.0943 9.81174 30.853 10.145 30.6416C11.0653 30.0577 12.2578 29.1304 13.0669 28.4569C13.4686 28.1224 13.5314 27.5153 13.2076 27.1007C12.8836 26.6862 12.2953 26.621 11.8936 26.9554C10.9334 27.7545 9.8628 28.5565 9.1662 28.9982C8.83916 29.206 8.57528 29.3577 8.27155 29.4728C7.59532 29.7296 7.38309 29.5691 7.28126 29.492C7.04749 29.315 6.87393 28.9358 7.01266 28.4898L9.07441 21.9408C9.59538 20.2861 9.02895 18.4873 7.66498 17.4647L2.20643 13.3719C1.76722 13.0426 1.87171 12.5777 1.91392 12.4428C1.95642 12.3081 2.13677 11.8689 2.67959 11.8689H10.3026C11.4647 11.8689 12.4868 11.1025 12.8461 9.96165L15.2015 2.4799C15.3624 1.96875 15.8273 1.92885 15.966 1.92885C16.1053 1.92885 16.572 1.96875 16.7328 2.4799L19.0886 9.96165C19.4475 11.1025 20.4697 11.8689 21.6318 11.8689H29.2548C29.7976 11.8689 29.9779 12.3081 30.0204 12.4428C30.0629 12.5777 30.1671 13.0426 29.7282 13.3719L24.2694 17.4647C22.9054 18.4873 22.339 20.2861 22.8599 21.9408L24.9193 28.4813C25.0826 28.9991 24.8706 29.3104 24.6643 29.4804C24.4589 29.6498 24.2337 29.6894 23.6002 29.4405L23.4001 29.3571C18.9977 27.491 16.2367 24.3787 16.2098 24.3476C16.2001 24.3366 16.1903 24.326 16.1803 24.3153C15.0849 23.1705 14.2159 22.0623 13.5241 20.9279C13.0241 20.1076 12.6282 19.2836 12.3484 18.4785C11.8012 16.9054 11.8204 15.8691 12.4086 15.2169C12.6808 14.9154 13.2971 14.7439 13.7018 14.8566C14.3511 15.0375 14.801 15.5755 15.0767 16.5003C15.1965 16.9027 15.5554 17.1784 15.9633 17.1811C16.3733 17.1976 16.7337 16.914 16.8592 16.5134C17.0581 15.8774 17.549 14.8115 18.6016 14.8115H18.6066C19.0042 14.8127 19.3604 14.9888 19.6101 15.3071C20.1279 15.9672 20.1149 17.0188 19.5703 18.5218C19.1907 19.5703 18.5103 20.7053 17.7949 21.4842C17.4395 21.8707 17.4554 22.4809 17.8297 22.8477C18.2043 23.2141 18.7958 23.1977 19.1512 22.8111C20.0411 21.8424 20.8522 20.4914 21.3212 19.1974C22.1173 16.9999 22.0329 15.3303 21.063 14.0935C20.4617 13.3271 19.5688 12.8857 18.6128 12.8826C17.5797 12.8863 16.6614 13.3457 15.981 14.1846C15.4126 13.4818 14.744 13.1492 14.1891 12.9944C13.1111 12.6938 11.7867 13.0758 11.0408 13.9025C9.40234 15.718 10.2958 18.2863 10.5892 19.1301C10.9148 20.0665 11.3702 21.0172 11.9423 21.9554C12.7044 23.2047 13.651 24.4155 14.8364 25.6562C15.1006 25.9545 17.9717 29.1195 22.6067 31.1059C22.6135 31.1092 22.6206 31.1123 22.6276 31.1156C23.0034 31.2789 23.615 31.5448 24.298 31.5448C24.7918 31.5448 25.3234 31.4056 25.8302 30.988C26.7337 30.2435 27.0655 29.0546 26.6965 27.8848L24.6374 21.345C24.3677 20.4875 24.6611 19.555 25.368 19.0253L30.8265 14.9324C31.7814 14.2163 32.1628 13.0051 31.7979 11.8466C31.4334 10.6885 30.4351 9.93972 29.2548 9.93972Z" fill="#6B20CE"/>
</g>
<path fill-rule="evenodd" clip-rule="evenodd" d="M49.3075 12.283C49.7414 12.283 50.1209 11.9006 50.1209 11.4177C50.1209 10.9148 49.7414 10.5127 49.3075 10.5127H42.9088C42.2762 10.5127 41.9326 10.8948 41.9326 11.5786V23.0262C41.9326 23.5693 42.3485 24.0319 42.8547 24.0319C43.3427 24.0319 43.7404 23.5693 43.7404 23.0262V17.9762H49.1811C49.6152 17.9762 49.9947 17.5741 49.9947 17.0712C49.9947 16.5884 49.6152 16.2062 49.1811 16.2062H43.7404V12.283H49.3075Z" fill="#6B20CE"/>
<path fill-rule="evenodd" clip-rule="evenodd" d="M52.5942 10.5127C52.1356 10.5127 51.7588 10.9719 51.7588 11.511V23.0336C51.7588 23.5727 52.1356 24.0319 52.5942 24.0319C53.0366 24.0319 53.3965 23.5727 53.3965 23.0336V11.511C53.3965 10.9719 53.0366 10.5127 52.5942 10.5127Z" fill="#6B20CE"/>
<path fill-rule="evenodd" clip-rule="evenodd" d="M66.3918 10.5127C66.0079 10.5127 65.6591 10.7923 65.5368 11.1917L61.9944 21.7555L58.4693 11.1917C58.3297 10.7923 57.998 10.5127 57.5967 10.5127C57.0907 10.5127 56.6719 10.992 56.6719 11.571C56.6719 11.7107 56.7068 11.8305 56.759 11.9506L60.5633 22.9138C60.7901 23.5529 61.3485 24.0319 61.9944 24.0319C62.6573 24.0319 63.2158 23.5529 63.4428 22.9138L67.2471 11.9506C67.2993 11.8305 67.3166 11.7107 67.3166 11.571C67.3166 10.992 66.9151 10.5127 66.3918 10.5127Z" fill="#6B20CE"/>
<path fill-rule="evenodd" clip-rule="evenodd" d="M77.1474 12.2962C77.5813 12.2962 77.9608 11.911 77.9608 11.4245C77.9608 10.9178 77.5813 10.5127 77.1474 10.5127H70.7484C70.1158 10.5127 69.7725 10.8977 69.7725 11.5866V22.9577C69.7725 23.6469 70.1158 24.0319 70.7484 24.0319H77.1474C77.5813 24.0319 77.9608 23.6265 77.9608 23.1199C77.9608 22.6331 77.5813 22.2481 77.1474 22.2481H71.58V18.0321H77.021C77.4548 18.0321 77.8343 17.627 77.8343 17.1203C77.8343 16.6338 77.4548 16.2488 77.021 16.2488H71.58V12.2962H77.1474Z" fill="#6B20CE"/>
<path fill-rule="evenodd" clip-rule="evenodd" d="M86.837 16.0656C85.3504 15.6536 84.0612 15.2807 84.0612 14.1033C84.0612 13.0044 84.9745 12.259 86.4428 12.259C87.4279 12.259 88.4664 12.573 89.3082 13.2989C89.4334 13.3969 89.6125 13.4756 89.8096 13.4756C90.275 13.4756 90.651 13.0439 90.651 12.5337C90.651 12.2198 90.508 11.945 90.275 11.7878C89.1829 10.9441 88.037 10.5127 86.586 10.5127C83.9538 10.5127 82.2167 12.0825 82.2167 14.2408C82.2167 16.9092 84.4372 17.5174 86.3533 18.0668C87.8755 18.4985 89.2366 18.891 89.2366 20.2646C89.2366 21.2062 88.556 22.2853 86.6221 22.2853C85.3149 22.2853 84.2581 21.7359 83.4523 21.0295C83.3093 20.912 83.1122 20.8335 82.9153 20.8335C82.4494 20.8335 82.0557 21.265 82.0557 21.7754C82.0557 22.0894 82.1989 22.3443 82.3958 22.5208C83.4167 23.443 84.7956 24.0319 86.5502 24.0319C89.7738 24.0319 91.0628 22.1286 91.0628 20.0879C91.0628 17.3014 88.7889 16.6345 86.837 16.0656Z" fill="#6B20CE"/>
<path fill-rule="evenodd" clip-rule="evenodd" d="M100.115 10.5127H92.637C92.2249 10.5127 91.8809 10.9148 91.8809 11.4177C91.8809 11.9006 92.2249 12.283 92.637 12.283H95.525V23.0262C95.525 23.5693 95.903 24.0319 96.3845 24.0319C96.8486 24.0319 97.2441 23.5693 97.2441 23.0262V12.283H100.115C100.527 12.283 100.888 11.9006 100.888 11.4177C100.888 10.9148 100.527 10.5127 100.115 10.5127Z" fill="#6B20CE"/>
<path fill-rule="evenodd" clip-rule="evenodd" d="M130.234 16.0656C128.748 15.6536 127.459 15.2807 127.459 14.1033C127.459 13.0044 128.372 12.259 129.84 12.259C130.825 12.259 131.864 12.573 132.706 13.2989C132.831 13.3969 133.01 13.4756 133.207 13.4756C133.672 13.4756 134.049 13.0439 134.049 12.5337C134.049 12.2198 133.905 11.945 133.672 11.7878C132.58 10.9441 131.434 10.5127 129.983 10.5127C127.351 10.5127 125.614 12.0825 125.614 14.2408C125.614 16.9092 127.835 17.5174 129.751 18.0668C131.273 18.4985 132.634 18.891 132.634 20.2646C132.634 21.2062 131.954 22.2853 130.02 22.2853C128.712 22.2853 127.656 21.7359 126.85 21.0295C126.707 20.912 126.51 20.8335 126.313 20.8335C125.847 20.8335 125.453 21.265 125.453 21.7754C125.453 22.0894 125.596 22.3443 125.793 22.5208C126.814 23.443 128.193 24.0319 129.948 24.0319C133.172 24.0319 134.46 22.1286 134.46 20.0879C134.46 17.3014 132.186 16.6345 130.234 16.0656Z" fill="#6B20CE"/>
<path fill-rule="evenodd" clip-rule="evenodd" d="M105.441 17.1937L107.021 12.3496L108.613 17.1937H105.441ZM108.449 11.6308C108.223 10.992 107.683 10.5127 107.021 10.5127C106.376 10.5127 105.819 10.992 105.61 11.6308L101.777 22.634C101.742 22.7541 101.707 22.8935 101.707 23.0133C101.707 23.5727 102.108 24.0319 102.596 24.0319C102.962 24.0319 103.292 23.7523 103.415 23.3928L104.146 21.1762L104.721 19.399L104.865 18.9586H109.193L109.338 19.399L109.913 21.1762L110.645 23.3928C110.749 23.7523 111.08 24.0319 111.463 24.0319C111.951 24.0319 112.352 23.5727 112.352 23.0133C112.352 22.8739 112.317 22.7337 112.282 22.634L108.449 11.6308Z" fill="#6B20CE"/>
<path fill-rule="evenodd" clip-rule="evenodd" d="M119.715 17.0583H116.64V16.9907V12.4655H119.715C120.999 12.4655 122.043 13.4957 122.043 14.7618C122.043 16.0281 120.999 17.0583 119.715 17.0583ZM123.816 14.7618C123.816 12.4223 121.976 10.5186 119.715 10.5186H116.542L116.542 10.5127H115.798C115.157 10.5127 114.809 10.8948 114.809 11.5786V23.0259C114.809 23.5693 115.23 24.0319 115.743 24.0319C116.238 24.0319 116.64 23.5693 116.64 23.0259V19.0052H119.235L121.672 23.5488C121.82 23.8227 122.102 24.0058 122.413 24.0295C122.924 24.069 123.304 23.5941 123.331 23.1722C123.351 22.8514 123.288 22.6854 123.188 22.5361L121.104 18.7497C122.682 18.1589 123.816 16.5968 123.816 14.7618Z" fill="#6B20CE"/>
</svg>
